<?xml version="1.0" encoding="utf-8"?>
<!-- Generator: Adobe Illustrator 16.0.0, SVG Export Plug-In . SVG Version: 6.00 Build 0)  -->
<!DOCTYPE svg PUBLIC "-//W3C//DTD SVG 1.1//EN" "http://www.w3.org/Graphics/SVG/1.1/DTD/svg11.dtd">
<svg version="1.1" id="Objects" xmlns="http://www.w3.org/2000/svg" xmlns:xlink="http://www.w3.org/1999/xlink" x="0px" y="0px"
	 width="148.649px" height="169.221px" viewBox="422.293 395.671 148.649 169.221"
	 enable-background="new 422.293 395.671 148.649 169.221" xml:space="preserve">
<g>
	<g>
		<polygon fill="#249684" points="422.293,474.543 496.463,404.431 496.463,395.671 422.293,465.782 		"/>
		<polygon fill="#249684" points="422.293,488.371 422.293,497.132 496.463,427.021 496.463,418.261 		"/>
		<polygon fill="#249684" points="422.293,510.951 422.293,519.721 496.463,449.602 496.463,440.843 		"/>
		<polygon fill="#249684" points="422.293,533.541 422.293,542.302 496.463,472.191 496.463,463.431 		"/>
		<polygon fill="#249684" points="496.463,486.021 422.293,556.132 422.293,564.891 496.463,494.782 		"/>
		<polygon fill="#249684" points="570.942,465.782 502.463,401.051 502.463,409.812 570.942,474.543 		"/>
		<polygon fill="#249684" points="570.942,488.371 502.463,423.642 502.463,432.402 570.942,497.132 		"/>
		<polygon fill="#249684" points="570.942,510.951 502.463,446.221 502.463,454.981 570.942,519.721 		"/>
		<polygon fill="#249684" points="570.942,533.541 502.463,468.812 502.463,477.571 570.942,542.302 		"/>
		<polygon fill="#249684" points="570.942,556.132 502.463,491.402 502.463,500.161 570.942,564.891 		"/>
	</g>
</g>
</svg>
