<?xml version="1.0" encoding="utf-8"?>
<!-- Generator: Adobe Illustrator 16.0.0, SVG Export Plug-In . SVG Version: 6.00 Build 0)  -->
<!DOCTYPE svg PUBLIC "-//W3C//DTD SVG 1.1//EN" "http://www.w3.org/Graphics/SVG/1.1/DTD/svg11.dtd">
<svg version="1.1" id="Objects" xmlns="http://www.w3.org/2000/svg" xmlns:xlink="http://www.w3.org/1999/xlink" x="0px" y="0px"
	 width="148.648px" height="169.221px" viewBox="0 0 148.648 169.221" enable-background="new 0 0 148.648 169.221"
	 xml:space="preserve">
<polygon fill="#FFFFFF" points="0.138,78.87 74.308,8.76 74.308,0 0.138,70.111 "/>
<polygon fill="#FFFFFF" points="0.138,92.7 0.138,101.46 74.308,31.35 74.308,22.59 "/>
<polygon fill="#FFFFFF" points="0.138,115.281 0.138,124.05 74.308,53.93 74.308,45.171 "/>
<polygon fill="#FFFFFF" points="0.138,137.87 0.138,146.63 74.308,76.52 74.308,67.76 "/>
<polygon fill="#FFFFFF" points="74.308,90.351 0.138,160.46 0.138,169.22 74.308,99.111 "/>
<polygon fill="#FFFFFF" points="148.787,70.111 80.308,5.38 80.308,14.14 148.787,78.87 "/>
<polygon fill="#FFFFFF" points="148.787,92.7 80.308,27.97 80.308,36.731 148.787,101.46 "/>
<polygon fill="#FFFFFF" points="148.787,115.281 80.308,50.55 80.308,59.31 148.787,124.05 "/>
<polygon fill="#FFFFFF" points="148.787,137.87 80.308,73.14 80.308,81.9 148.787,146.63 "/>
<polygon fill="#FFFFFF" points="148.787,160.46 80.308,95.732 80.308,104.49 148.787,169.22 "/>
</svg>
