<?xml version="1.0" encoding="utf-8"?>
<!-- Generator: Adobe Illustrator 16.0.0, SVG Export Plug-In . SVG Version: 6.00 Build 0)  -->
<!DOCTYPE svg PUBLIC "-//W3C//DTD SVG 1.1//EN" "http://www.w3.org/Graphics/SVG/1.1/DTD/svg11.dtd">
<svg version="1.1" id="Layer_1" xmlns="http://www.w3.org/2000/svg" xmlns:xlink="http://www.w3.org/1999/xlink" x="0px" y="0px"
	 width="32px" height="32px" viewBox="0 0 32 32" enable-background="new 0 0 32 32" xml:space="preserve">
<path display="none" d="M19,6h5V0h-5c-3.86,0-7,3.14-7,7v3H8v6h4v16h6V16h5l1-6h-6V7C18,6.458,18.458,6,19,6z"/>
<g display="none">
	<path display="inline" fill="#FBFBFB" d="M0,25.633c0.072-0.328,0.125-0.66,0.218-0.98c0.495-1.713,1.546-2.977,3.088-3.857
		c1.05-0.602,2.188-0.949,3.352-1.234c1.239-0.303,2.496-0.486,3.77-0.561c0.017-0.001,0.033-0.002,0.049-0.003
		c0.439-0.041,0.55-0.261,0.314-0.638c-0.325-0.518-0.609-1.053-0.737-1.658c-0.113-0.536-0.087-1.058,0.116-1.57
		c0.052-0.132,0.092-0.268,0.148-0.397c0.054-0.127,0.004-0.192-0.117-0.202c-0.162-0.017-0.325-0.021-0.487-0.024
		c-0.565-0.014-1.138,0.033-1.692-0.05c-2.569-0.384-4.443-1.729-5.489-4.135C2.147,9.434,2.07,8.484,2.105,7.522
		c0.123-3.34,2.903-6.345,6.132-7.096c1.272-0.296,2.562-0.432,3.867-0.431c2.503,0.002,5.005,0.001,7.511,0.001
		c0.092,0,0.188-0.001,0.275,0.018c0.051,0.01,0.113,0.052,0.133,0.097c0.015,0.029-0.032,0.097-0.066,0.133
		c-0.05,0.048-0.111,0.085-0.174,0.121c-0.436,0.257-0.866,0.518-1.309,0.767c-0.442,0.252-0.923,0.379-1.434,0.379
		c-0.371,0.001-0.742-0.007-1.111,0.007c-0.107,0.004-0.212,0.074-0.318,0.114c0.057,0.093,0.095,0.208,0.173,0.276
		c1.599,1.409,2.275,3.22,2.307,5.306c0.021,1.416-0.324,2.741-1.191,3.872c-0.45,0.586-1.017,1.086-1.548,1.606
		c-0.409,0.4-0.828,0.791-1.151,1.266c-0.374,0.549-0.532,1.143-0.313,1.792c0.138,0.411,0.398,0.756,0.713,1.04
		c0.5,0.453,1.021,0.884,1.542,1.31c0.81,0.662,1.585,1.362,2.218,2.203c0.625,0.832,0.994,1.77,1.131,2.797
		c0.328,2.469-0.575,4.471-2.354,6.137c-1.396,1.306-3.073,2.045-4.922,2.434c-0.81,0.174-1.63,0.27-2.458,0.305
		C9.706,31.977,9.653,31.991,9.601,32c-0.49,0-0.979,0-1.469,0c-0.037-0.009-0.073-0.021-0.11-0.023
		c-0.448-0.047-0.9-0.074-1.344-0.144c-1.552-0.239-3.017-0.726-4.338-1.595c-1.157-0.76-1.917-1.809-2.229-3.168
		C0.062,26.855,0.036,26.635,0,26.416C0,26.154,0,25.895,0,25.633z M10.747,30.232c1.311-0.01,2.555-0.221,3.726-0.78
		c1.629-0.774,2.406-2.08,2.366-3.864c-0.024-1.215-0.578-2.213-1.41-3.064c-0.792-0.813-1.728-1.439-2.651-2.086
		c-0.306-0.213-0.642-0.311-1.01-0.316c-0.866-0.02-1.73,0.023-2.586,0.158c-1.155,0.182-2.273,0.494-3.308,1.053
		c-1.749,0.945-2.591,2.646-2.244,4.602c0.24,1.356,1.042,2.344,2.208,3.022C7.358,29.839,9.021,30.212,10.747,30.232z
		 M14.536,8.854c-0.003-0.92-0.233-2.078-0.618-3.207c-0.305-0.898-0.657-1.778-1.257-2.527c-0.785-0.978-1.744-1.669-3.048-1.732
		C8.347,1.325,7.299,1.743,6.556,2.814C5.95,3.687,5.663,4.663,5.658,5.713C5.646,7.911,6.332,9.89,7.674,11.618
		c0.958,1.232,2.214,1.891,3.829,1.742c1.223-0.113,2.088-0.708,2.587-1.826C14.432,10.771,14.536,9.96,14.536,8.854z"/>
	<path display="inline" fill="#FBFBFB" d="M29.549,7.381c-0.568,0-1.142-0.001-1.712,0c-0.46,0.001-0.758,0.294-0.758,0.757
		c-0.004,1.121-0.002,2.242-0.002,3.363c0,0.539-0.272,0.808-0.813,0.808c-0.305,0-0.611,0.002-0.914,0
		c-0.431-0.005-0.728-0.301-0.729-0.733c0-1.126,0-2.253,0-3.379c0-0.536-0.28-0.814-0.813-0.814c-1.105,0-2.209,0-3.315,0
		c-0.517,0-0.796-0.279-0.798-0.795c0-0.305,0-0.61,0-0.914c0.006-0.454,0.297-0.748,0.748-0.748
		c1.119-0.002,2.24-0.001,3.361-0.001c0.535,0,0.815-0.279,0.815-0.815c0-1.104,0-2.209,0-3.314c0-0.52,0.274-0.797,0.794-0.797
		c0.304,0,0.609-0.001,0.914,0c0.456,0.002,0.748,0.291,0.75,0.743c0,1.122,0,2.243,0,3.365c0,0.544,0.277,0.819,0.826,0.819
		c1.104,0,2.209,0,3.314,0c0.508,0.001,0.786,0.28,0.786,0.788c0.002,0.316,0.002,0.632,0,0.947c-0.006,0.421-0.3,0.718-0.722,0.72
		C30.703,7.384,30.127,7.381,29.549,7.381z"/>
</g>
<g>
	<path fill="#249684" d="M27.391,22.191c-1.928-1.646-3.883-2.646-5.785-1l-1.135,0.994c-0.832,0.724-2.377,4.094-8.354-2.779
		c-5.975-6.864-2.419-7.933-1.586-8.648l1.143-0.995c1.893-1.649,1.179-3.726-0.188-5.861l-0.823-1.293
		C9.292,0.475,7.798-0.924,5.9,0.721L4.875,1.618c-0.839,0.611-3.184,2.597-3.751,6.37c-0.684,4.527,1.474,9.711,6.421,15.399
		c4.94,5.691,9.775,8.549,14.355,8.5c3.81-0.041,6.108-2.086,6.828-2.826l1.029-0.898c1.893-1.646,0.717-3.32-1.211-4.971
		L27.391,22.191z"/>
</g>
</svg>
